<?xml version="1.0" encoding="UTF-8" ?>
<!DOCTYPE svg PUBLIC "-//W3C//DTD SVG 1.1//EN" "http://www.w3.org/Graphics/SVG/1.1/DTD/svg11.dtd">
<svg width="1143pt" height="1143pt" viewBox="0 0 1143 1143" version="1.1" xmlns="http://www.w3.org/2000/svg">
<g id="#ffe41bff">
<path fill="#ffe41b" opacity="1.00" d=" M 0.00 0.00 L 1143.00 0.00 L 1143.00 1143.00 L 0.00 1143.00 L 0.00 0.00 M 436.98 330.92 C 430.50 334.52 425.00 339.59 420.19 345.17 C 416.23 349.53 413.07 354.66 408.46 358.40 C 405.43 360.91 401.53 361.89 397.79 362.77 C 389.44 364.64 381.11 366.82 373.26 370.26 C 366.05 373.72 359.36 378.18 352.95 382.94 C 344.41 389.00 336.95 396.50 327.90 401.82 C 313.39 410.61 298.49 419.31 286.71 431.71 C 277.58 440.46 270.64 451.11 263.48 461.45 C 257.77 470.45 251.33 479.03 246.69 488.66 C 242.97 495.77 240.35 503.38 238.17 511.08 C 237.79 512.44 237.53 513.87 237.62 515.29 C 239.10 515.68 240.61 515.94 242.14 516.09 C 236.73 522.19 231.55 528.78 228.66 536.48 C 226.88 542.34 225.26 548.76 227.33 554.78 C 230.84 566.80 240.67 575.29 248.13 584.87 C 258.56 597.09 263.09 612.90 271.88 626.16 C 277.62 635.49 286.51 642.32 292.60 651.40 C 296.87 658.68 297.60 667.35 298.59 675.57 C 299.32 683.99 300.84 692.45 299.84 700.92 C 298.78 710.57 297.19 720.28 298.12 730.01 C 298.94 739.19 303.14 747.90 309.32 754.68 C 318.82 764.00 330.94 770.21 340.23 779.77 C 346.16 787.07 350.14 795.72 355.73 803.28 C 361.13 811.06 367.83 817.90 375.24 823.79 C 380.05 827.69 385.67 830.57 391.64 832.23 C 397.63 833.75 403.87 833.26 409.99 833.16 C 418.04 833.02 426.06 832.25 433.99 830.90 C 436.96 830.46 440.15 829.70 443.02 831.00 C 447.35 832.77 451.28 835.35 455.40 837.57 C 462.94 841.84 471.25 845.12 479.98 845.66 C 486.32 845.77 492.66 845.58 499.00 845.66 C 506.35 845.94 514.22 844.40 521.02 847.98 C 530.21 852.58 539.06 858.31 549.21 860.60 C 560.12 862.30 571.26 860.04 581.63 856.62 C 593.42 852.92 603.64 845.06 615.94 842.87 C 628.43 841.25 641.29 841.43 653.39 837.52 C 658.30 836.18 663.01 833.96 668.10 833.37 C 672.80 833.47 677.13 835.68 681.73 836.43 C 688.74 837.59 695.90 838.46 702.99 837.42 C 722.47 836.38 742.20 826.30 751.93 808.94 C 756.54 802.07 760.04 794.53 764.74 787.74 C 771.71 777.59 783.03 772.03 792.22 764.25 C 801.36 757.30 808.73 747.27 810.66 735.77 C 813.20 719.52 813.21 703.00 815.73 686.75 C 817.37 678.51 818.60 670.16 821.13 662.13 C 825.62 647.07 831.11 631.93 830.91 615.99 C 830.72 604.34 831.50 592.61 829.82 581.03 C 828.33 568.67 826.32 556.34 825.43 543.92 C 825.99 534.14 829.74 524.83 830.24 515.02 C 831.28 504.40 830.14 493.74 828.65 483.22 C 827.06 470.58 825.01 457.79 820.01 445.99 C 814.52 433.80 802.42 426.80 794.88 416.13 C 789.08 408.37 783.58 400.15 775.93 394.05 C 772.13 390.51 768.38 386.93 764.40 383.60 C 759.30 378.66 754.27 373.57 748.27 369.72 C 745.48 367.99 742.25 367.10 739.00 366.87 C 730.02 366.23 721.00 365.26 712.00 366.04 C 708.47 366.31 704.92 367.05 701.40 366.41 C 696.98 365.61 692.79 363.91 688.60 362.36 C 681.13 359.92 674.95 354.11 666.79 353.79 C 668.12 353.53 667.77 351.71 666.65 351.38 C 660.12 346.29 653.05 341.82 645.35 338.72 C 639.40 336.65 632.92 336.84 626.75 337.62 C 619.78 338.49 613.44 341.63 606.84 343.80 C 598.42 346.54 589.98 350.24 580.94 349.77 C 567.72 349.20 555.30 344.09 542.43 341.54 C 534.09 340.02 525.76 342.17 517.55 343.44 C 509.99 344.66 502.56 341.63 496.28 337.67 C 488.28 332.60 479.99 327.70 470.81 325.10 C 465.62 324.12 460.29 324.67 455.04 324.60 C 448.46 324.54 442.56 327.83 436.98 330.92 Z" />
<path fill="#ffe41b" opacity="1.00" d=" M 749.11 417.87 C 754.63 420.89 759.61 424.79 765.09 427.89 C 774.21 432.76 780.51 441.24 787.03 448.99 C 789.47 452.06 792.14 455.19 792.93 459.16 C 787.40 451.13 780.94 443.81 774.33 436.66 C 767.05 428.95 756.50 425.45 749.11 417.87 Z" />
<path fill="#ffe41b" opacity="1.00" d=" M 802.13 577.86 C 803.09 584.53 803.59 591.30 803.70 598.05 C 803.16 603.73 803.03 609.47 802.13 615.12 C 802.36 602.70 802.55 590.27 802.13 577.86 Z" />
</g>
<g id="#fef4bdff">
<path fill="#fef4bd" opacity="1.00" d=" M 436.98 330.92 C 442.56 327.83 448.46 324.54 455.04 324.60 C 460.29 324.67 465.62 324.12 470.81 325.10 C 479.99 327.70 488.28 332.60 496.28 337.67 C 502.56 341.63 509.99 344.66 517.55 343.44 C 525.76 342.17 534.09 340.02 542.43 341.54 C 555.30 344.09 567.72 349.20 580.94 349.77 C 589.98 350.24 598.42 346.54 606.84 343.80 C 613.44 341.63 619.78 338.49 626.75 337.62 C 632.92 336.84 639.40 336.65 645.35 338.72 C 653.05 341.82 660.12 346.29 666.65 351.38 C 667.77 351.71 668.12 353.53 666.79 353.79 C 661.85 354.84 657.09 356.99 651.99 357.11 C 646.91 356.52 642.53 353.55 637.57 352.47 C 630.99 350.72 624.07 351.76 617.67 353.73 C 607.32 356.89 597.05 360.47 587.39 365.39 C 583.30 367.43 578.83 369.45 574.13 368.74 C 563.73 367.22 554.81 361.04 544.77 358.32 C 531.05 355.06 517.97 364.40 504.21 361.76 C 495.99 360.13 489.54 354.47 482.46 350.41 C 475.20 346.00 466.95 342.25 458.25 343.06 C 447.43 344.15 437.86 351.07 432.12 360.12 C 426.53 367.32 423.35 377.97 413.55 380.52 C 400.10 383.87 385.90 385.05 373.33 391.32 C 360.84 397.64 353.29 410.11 342.02 418.04 C 334.45 423.35 325.82 426.81 317.40 430.48 C 305.94 435.84 295.40 443.62 287.81 453.82 C 281.08 462.59 275.70 472.35 271.60 482.61 C 268.50 489.45 266.24 497.25 260.11 502.09 C 254.13 506.77 247.83 511.04 242.14 516.09 C 240.61 515.94 239.10 515.68 237.62 515.29 C 237.53 513.87 237.79 512.44 238.17 511.08 C 240.35 503.38 242.97 495.77 246.69 488.66 C 251.33 479.03 257.77 470.45 263.48 461.45 C 270.64 451.11 277.58 440.46 286.71 431.71 C 298.49 419.31 313.39 410.61 327.90 401.82 C 336.95 396.50 344.41 389.00 352.95 382.94 C 359.36 378.18 366.05 373.72 373.26 370.26 C 381.11 366.82 389.44 364.64 397.79 362.77 C 401.53 361.89 405.43 360.91 408.46 358.40 C 413.07 354.66 416.23 349.53 420.19 345.17 C 425.00 339.59 430.50 334.52 436.98 330.92 Z" />
<path fill="#fef4bd" opacity="1.00" d=" M 454.35 358.33 C 461.03 356.78 468.43 357.15 474.59 360.40 C 484.29 364.79 492.53 372.38 503.24 374.43 C 511.78 375.80 520.42 374.32 529.00 374.59 C 536.20 374.84 543.76 373.51 550.62 376.38 C 558.89 379.71 567.24 383.05 575.97 384.99 C 581.33 386.39 585.93 382.78 590.34 380.37 C 600.57 374.71 610.42 367.39 622.22 365.48 C 631.52 363.79 639.72 370.63 649.01 369.38 C 657.92 368.30 665.94 363.28 674.98 362.82 C 679.39 363.55 683.24 366.09 687.42 367.57 C 693.96 370.01 700.09 373.69 706.99 375.08 C 716.65 376.08 726.37 374.77 736.06 375.13 C 741.28 375.11 744.67 379.63 748.48 382.52 C 756.68 388.92 763.59 396.73 771.03 403.97 C 775.59 408.76 780.92 412.93 784.40 418.65 C 787.30 422.71 788.68 428.13 793.36 430.65 C 804.19 437.57 812.20 448.96 814.15 461.75 C 815.08 469.96 817.90 477.80 818.91 486.01 C 821.25 497.45 822.91 509.20 821.49 520.86 C 819.71 526.67 817.84 532.46 816.29 538.34 C 814.85 543.89 816.76 549.47 818.10 554.83 C 821.47 566.69 824.52 578.71 825.84 590.99 C 826.90 603.25 828.03 615.68 825.85 627.90 C 823.75 637.86 819.66 647.24 817.05 657.06 C 814.02 669.30 812.44 681.86 808.99 694.01 C 805.76 705.29 802.47 716.58 800.31 728.12 C 798.44 736.38 795.31 745.10 788.11 750.20 C 779.04 757.02 770.48 764.48 761.74 771.71 C 757.54 775.46 752.79 779.00 750.40 784.27 C 747.86 789.89 744.89 795.33 741.48 800.47 C 738.22 804.82 734.26 808.58 730.39 812.37 C 726.32 816.46 721.10 819.07 716.16 821.92 C 705.08 824.65 693.44 825.17 682.14 823.44 C 670.68 821.61 658.76 822.22 647.76 826.05 C 645.91 826.77 644.10 827.71 642.08 827.82 C 633.72 828.54 625.32 828.10 616.95 828.32 C 612.01 828.39 607.33 830.15 602.79 831.90 C 593.22 836.01 583.60 840.01 574.00 844.05 C 568.99 846.35 563.36 845.84 558.00 845.85 C 554.44 845.71 550.70 846.01 547.36 844.55 C 540.35 841.42 533.35 838.23 526.82 834.18 C 523.31 831.91 519.05 831.56 514.99 831.58 C 501.31 831.58 487.64 831.61 473.96 831.63 C 469.44 831.79 465.54 829.27 461.66 827.34 C 456.56 824.79 451.54 822.08 446.47 819.49 C 442.34 817.37 437.56 817.41 433.08 818.05 C 422.12 819.57 411.00 819.70 399.97 819.14 C 390.09 818.80 382.79 811.33 375.86 805.20 C 370.69 800.90 366.90 795.31 363.22 789.76 C 357.57 781.52 352.20 773.00 345.20 765.81 C 337.15 758.05 327.37 752.37 319.24 744.74 C 313.54 739.47 312.21 731.41 312.58 724.00 C 311.88 708.33 316.45 692.85 314.65 677.19 C 313.46 663.18 310.45 648.13 300.30 637.69 C 294.71 631.94 288.94 626.27 284.37 619.64 C 281.09 614.94 279.27 609.45 276.37 604.54 C 273.19 599.25 271.08 593.42 267.91 588.13 C 263.53 580.44 258.36 573.18 252.16 566.85 C 247.59 561.98 242.61 556.98 240.69 550.40 C 238.73 542.07 242.77 533.45 248.87 527.87 C 255.79 521.33 264.78 517.31 271.08 510.08 C 280.53 498.98 284.85 484.76 292.59 472.60 C 298.04 464.88 303.94 457.21 311.84 451.85 C 321.62 444.22 332.92 439.00 343.42 432.51 C 348.97 429.17 354.90 426.18 359.26 421.26 C 363.96 415.98 368.17 410.22 373.41 405.45 C 379.06 401.23 385.70 398.31 392.71 397.38 C 400.24 395.24 408.02 394.25 415.62 392.44 C 419.67 391.20 423.38 389.08 427.04 387.00 C 433.09 382.33 437.44 375.91 441.64 369.62 C 444.68 364.76 448.69 360.10 454.35 358.33 M 612.06 385.09 C 604.51 389.71 597.05 394.71 588.63 397.61 C 580.79 400.11 572.91 396.59 565.40 394.59 C 556.92 392.31 548.79 388.45 539.99 387.47 C 522.99 387.13 505.98 387.78 488.98 387.32 C 480.58 386.47 472.32 384.64 463.99 383.41 C 457.01 382.40 450.43 385.82 445.29 390.23 C 433.02 399.92 416.92 401.21 402.40 405.42 C 396.69 407.20 390.25 408.41 386.07 413.07 C 381.70 417.74 377.95 422.94 373.74 427.73 C 369.68 432.36 365.57 437.36 359.64 439.60 C 342.31 447.07 322.24 450.50 308.70 464.69 C 297.34 475.50 294.07 491.41 286.74 504.72 C 282.81 512.41 277.02 518.90 271.21 525.20 C 267.93 529.11 264.54 533.31 263.32 538.36 C 262.94 543.39 265.07 548.26 267.42 552.59 C 272.02 559.94 277.14 566.96 281.46 574.49 C 285.48 581.35 287.98 588.98 292.24 595.71 C 296.00 601.52 299.80 607.35 304.43 612.52 C 313.92 624.25 323.55 636.49 327.86 651.21 C 331.87 662.05 330.03 673.73 331.08 685.00 C 331.39 696.68 333.60 708.36 337.69 719.31 C 340.96 727.92 346.82 735.30 353.84 741.17 C 363.14 749.51 373.01 757.39 380.61 767.39 C 387.93 776.31 393.68 786.91 403.53 793.41 C 407.58 795.51 411.85 797.15 416.02 799.00 C 426.64 802.14 437.82 802.46 448.77 803.61 C 457.16 804.82 465.43 806.70 473.75 808.32 C 485.83 810.56 497.95 812.60 510.08 814.55 C 526.30 815.69 540.08 825.96 556.01 828.37 C 577.63 830.64 594.70 812.66 615.97 812.34 C 624.86 812.18 633.98 813.12 642.67 810.74 C 655.81 809.93 668.87 807.88 682.05 807.59 C 692.28 807.04 702.56 805.49 712.27 802.17 C 720.99 799.18 725.69 790.70 730.37 783.40 C 734.42 776.63 739.50 770.58 744.69 764.67 C 753.16 755.81 761.71 746.99 771.05 739.03 C 774.79 735.42 778.78 731.75 780.91 726.90 C 789.92 715.47 792.02 700.68 794.82 686.84 C 796.24 685.20 796.42 682.95 796.87 680.93 C 798.84 670.06 801.17 659.12 800.67 648.01 C 801.10 637.04 801.64 626.08 802.13 615.12 C 803.03 609.47 803.16 603.73 803.70 598.05 C 803.59 591.30 803.09 584.53 802.13 577.86 C 801.95 575.07 801.24 572.32 799.90 569.87 C 798.28 560.04 792.77 550.62 794.68 540.41 C 797.12 530.71 803.50 522.20 804.28 512.03 C 805.48 493.84 801.92 475.10 792.93 459.16 C 792.14 455.19 789.47 452.06 787.03 448.99 C 780.51 441.24 774.21 432.76 765.09 427.89 C 759.61 424.79 754.63 420.89 749.11 417.87 C 745.37 413.94 741.51 410.14 737.72 406.28 C 730.54 399.13 722.92 391.70 712.87 388.93 C 699.16 386.23 685.05 385.97 671.17 387.35 C 662.48 388.48 653.65 388.97 644.93 387.80 C 637.00 386.86 630.03 382.03 621.99 381.62 C 618.35 381.43 615.08 383.31 612.06 385.09 Z" />
<path fill="#fef4bd" opacity="1.00" d=" M 619.52 386.70 C 622.30 385.52 625.14 387.16 627.50 388.55 C 629.98 390.19 632.87 391.80 633.92 394.77 C 629.85 394.57 625.98 393.18 621.95 392.81 C 617.80 392.78 613.04 396.49 609.30 393.63 C 609.37 393.14 609.51 392.17 609.59 391.69 C 612.73 389.73 616.08 388.07 619.52 386.70 Z" />
<path fill="#fef4bd" opacity="1.00" d=" M 674.44 392.63 C 683.09 390.93 691.96 391.07 700.71 391.62 C 705.85 392.30 711.13 393.04 715.87 395.27 C 716.99 395.68 717.48 396.81 717.91 397.83 C 712.21 397.75 706.71 395.94 701.02 395.81 C 689.34 395.71 677.51 395.32 666.06 398.05 C 662.92 398.71 659.77 400.07 656.51 399.47 C 656.00 397.87 655.95 395.66 657.86 395.00 C 663.15 393.00 668.96 393.70 674.44 392.63 Z" />
<path fill="#fef4bd" opacity="1.00" d=" M 383.94 423.95 C 386.10 421.98 388.11 418.56 391.52 419.41 C 393.38 420.63 392.81 423.21 391.68 424.74 C 387.41 431.31 383.92 438.34 380.05 445.14 C 377.91 448.82 374.84 452.30 370.55 453.37 C 360.85 456.12 351.04 458.49 341.35 461.25 C 336.06 463.72 330.55 465.71 325.35 468.34 C 316.80 474.02 310.42 482.39 304.84 490.88 C 294.89 503.80 287.06 518.22 276.85 530.95 C 276.13 531.81 275.14 532.38 274.17 532.91 C 274.29 530.81 274.63 528.65 275.99 526.97 C 281.64 519.43 287.50 511.89 291.30 503.19 C 296.22 491.60 302.92 480.69 311.63 471.55 C 316.33 465.54 322.80 461.38 328.89 456.95 C 336.56 451.23 346.09 449.19 354.95 446.04 C 360.55 443.97 367.14 443.05 371.09 438.10 C 375.24 433.26 379.36 428.40 383.94 423.95 Z" />
</g>
<g id="#fe9402ff">
<path fill="#fe9402" opacity="1.00" d=" M 432.12 360.12 C 437.86 351.07 447.43 344.15 458.25 343.06 C 466.95 342.25 475.20 346.00 482.46 350.41 C 489.54 354.47 495.99 360.13 504.21 361.76 C 517.97 364.40 531.05 355.06 544.77 358.32 C 554.81 361.04 563.73 367.22 574.13 368.74 C 578.83 369.45 583.30 367.43 587.39 365.39 C 597.05 360.47 607.32 356.89 617.67 353.73 C 624.07 351.76 630.99 350.72 637.57 352.47 C 642.53 353.55 646.91 356.52 651.99 357.11 C 657.09 356.99 661.85 354.84 666.79 353.79 C 674.95 354.11 681.13 359.92 688.60 362.36 C 692.79 363.91 696.98 365.61 701.40 366.41 C 704.92 367.05 708.47 366.31 712.00 366.04 C 721.00 365.26 730.02 366.23 739.00 366.87 C 742.25 367.10 745.48 367.99 748.27 369.72 C 754.27 373.57 759.30 378.66 764.40 383.60 C 768.38 386.93 772.13 390.51 775.93 394.05 C 783.58 400.15 789.08 408.37 794.88 416.13 C 802.42 426.80 814.52 433.80 820.01 445.99 C 825.01 457.79 827.06 470.58 828.65 483.22 C 830.14 493.74 831.28 504.40 830.24 515.02 C 829.74 524.83 825.99 534.14 825.43 543.92 C 826.32 556.34 828.33 568.67 829.82 581.03 C 831.50 592.61 830.72 604.34 830.91 615.99 C 831.11 631.93 825.62 647.07 821.13 662.13 C 818.60 670.16 817.37 678.51 815.73 686.75 C 813.21 703.00 813.20 719.52 810.66 735.77 C 808.73 747.27 801.36 757.30 792.22 764.25 C 783.03 772.03 771.71 777.59 764.74 787.74 C 760.04 794.53 756.54 802.07 751.93 808.94 C 742.20 826.30 722.47 836.38 702.99 837.42 C 695.90 838.46 688.74 837.59 681.73 836.43 C 677.13 835.68 672.80 833.47 668.10 833.37 C 663.01 833.96 658.30 836.18 653.39 837.52 C 641.29 841.43 628.43 841.25 615.94 842.87 C 603.64 845.06 593.42 852.92 581.63 856.62 C 571.26 860.04 560.12 862.30 549.21 860.60 C 539.06 858.31 530.21 852.58 521.02 847.98 C 514.22 844.40 506.35 845.94 499.00 845.66 C 492.66 845.58 486.32 845.77 479.98 845.66 C 471.25 845.12 462.94 841.84 455.40 837.57 C 451.28 835.35 447.35 832.77 443.02 831.00 C 440.15 829.70 436.96 830.46 433.99 830.90 C 426.06 832.25 418.04 833.02 409.99 833.16 C 403.87 833.26 397.63 833.75 391.64 832.23 C 385.67 830.57 380.05 827.69 375.24 823.79 C 367.83 817.90 361.13 811.06 355.73 803.28 C 350.14 795.72 346.16 787.07 340.23 779.77 C 330.94 770.21 318.82 764.00 309.32 754.68 C 303.14 747.90 298.94 739.19 298.12 730.01 C 297.19 720.28 298.78 710.57 299.84 700.92 C 300.84 692.45 299.32 683.99 298.59 675.57 C 297.60 667.35 296.87 658.68 292.60 651.40 C 286.51 642.32 277.62 635.49 271.88 626.16 C 263.09 612.90 258.56 597.09 248.13 584.87 C 240.67 575.29 230.84 566.80 227.33 554.78 C 225.26 548.76 226.88 542.34 228.66 536.48 C 231.55 528.78 236.73 522.19 242.14 516.09 C 247.83 511.04 254.13 506.77 260.11 502.09 C 266.24 497.25 268.50 489.45 271.60 482.61 C 275.70 472.35 281.08 462.59 287.81 453.82 C 295.40 443.62 305.94 435.84 317.40 430.48 C 325.82 426.81 334.45 423.35 342.02 418.04 C 353.29 410.11 360.84 397.64 373.33 391.32 C 385.90 385.05 400.10 383.87 413.55 380.52 C 423.35 377.97 426.53 367.32 432.12 360.12 M 454.35 358.33 C 448.69 360.10 444.68 364.76 441.64 369.62 C 437.44 375.91 433.09 382.33 427.04 387.00 C 423.38 389.08 419.67 391.20 415.62 392.44 C 408.02 394.25 400.24 395.24 392.71 397.38 C 385.70 398.31 379.06 401.23 373.41 405.45 C 368.17 410.22 363.96 415.98 359.26 421.26 C 354.90 426.18 348.97 429.17 343.42 432.51 C 332.92 439.00 321.62 444.22 311.84 451.85 C 303.94 457.21 298.04 464.88 292.59 472.60 C 284.85 484.76 280.53 498.98 271.08 510.08 C 264.78 517.31 255.79 521.33 248.87 527.87 C 242.77 533.45 238.73 542.07 240.69 550.40 C 242.61 556.98 247.59 561.98 252.16 566.85 C 258.36 573.18 263.53 580.44 267.91 588.13 C 271.08 593.42 273.19 599.25 276.37 604.54 C 279.27 609.45 281.09 614.94 284.37 619.64 C 288.94 626.27 294.71 631.94 300.30 637.69 C 310.45 648.13 313.46 663.18 314.65 677.19 C 316.45 692.85 311.88 708.33 312.58 724.00 C 312.21 731.41 313.54 739.47 319.24 744.74 C 327.37 752.37 337.15 758.05 345.20 765.81 C 352.20 773.00 357.57 781.52 363.22 789.76 C 366.90 795.31 370.69 800.90 375.86 805.20 C 382.79 811.33 390.09 818.80 399.97 819.14 C 411.00 819.70 422.12 819.57 433.08 818.05 C 437.56 817.41 442.34 817.37 446.47 819.49 C 451.54 822.08 456.56 824.79 461.66 827.34 C 465.54 829.27 469.44 831.79 473.96 831.63 C 487.64 831.61 501.31 831.58 514.99 831.58 C 519.05 831.56 523.31 831.91 526.82 834.18 C 533.35 838.23 540.35 841.42 547.36 844.55 C 550.70 846.01 554.44 845.71 558.00 845.85 C 563.36 845.84 568.99 846.35 574.00 844.05 C 583.60 840.01 593.22 836.01 602.79 831.90 C 607.33 830.15 612.01 828.39 616.95 828.32 C 625.32 828.10 633.72 828.54 642.08 827.82 C 644.10 827.71 645.91 826.77 647.76 826.05 C 658.76 822.22 670.68 821.61 682.14 823.44 C 693.44 825.17 705.08 824.65 716.16 821.92 C 721.10 819.07 726.32 816.46 730.39 812.37 C 734.26 808.58 738.22 804.82 741.48 800.47 C 744.89 795.33 747.86 789.89 750.40 784.27 C 752.79 779.00 757.54 775.46 761.74 771.71 C 770.48 764.48 779.04 757.02 788.11 750.20 C 795.31 745.10 798.44 736.38 800.31 728.12 C 802.47 716.58 805.76 705.29 808.99 694.01 C 812.44 681.86 814.02 669.30 817.05 657.06 C 819.66 647.24 823.75 637.86 825.85 627.90 C 828.03 615.68 826.90 603.25 825.84 590.99 C 824.52 578.71 821.47 566.69 818.10 554.83 C 816.76 549.47 814.85 543.89 816.29 538.34 C 817.84 532.46 819.71 526.67 821.49 520.86 C 822.91 509.20 821.25 497.45 818.91 486.01 C 817.90 477.80 815.08 469.96 814.15 461.75 C 812.20 448.96 804.19 437.57 793.36 430.65 C 788.68 428.13 787.30 422.71 784.40 418.65 C 780.92 412.93 775.59 408.76 771.03 403.97 C 763.59 396.73 756.68 388.92 748.48 382.52 C 744.67 379.63 741.28 375.11 736.06 375.13 C 726.37 374.77 716.65 376.08 706.99 375.08 C 700.09 373.69 693.96 370.01 687.42 367.57 C 683.24 366.09 679.39 363.55 674.98 362.82 C 665.94 363.28 657.92 368.30 649.01 369.38 C 639.72 370.63 631.52 363.79 622.22 365.48 C 610.42 367.39 600.57 374.71 590.34 380.37 C 585.93 382.78 581.33 386.39 575.97 384.99 C 567.24 383.05 558.89 379.71 550.62 376.38 C 543.76 373.51 536.20 374.84 529.00 374.59 C 520.42 374.32 511.78 375.80 503.24 374.43 C 492.53 372.38 484.29 364.79 474.59 360.40 C 468.43 357.15 461.03 356.78 454.35 358.33 Z" />
<path fill="#fe9402" opacity="1.00" d=" M 799.90 569.87 C 801.24 572.32 801.95 575.07 802.13 577.86 C 802.55 590.27 802.36 602.70 802.13 615.12 C 801.64 626.08 801.10 637.04 800.67 648.01 C 801.17 659.12 798.84 670.06 796.87 680.93 C 796.42 682.95 796.24 685.20 794.82 686.84 C 795.69 680.53 797.43 674.37 798.18 668.05 C 799.15 660.07 799.48 652.03 799.34 644.00 C 799.61 619.30 803.41 594.50 799.90 569.87 Z" />
<path fill="#fe9402" opacity="1.00" d=" M 753.36 753.35 C 762.59 744.57 772.65 736.65 780.91 726.90 C 778.78 731.75 774.79 735.42 771.05 739.03 C 761.71 746.99 753.16 755.81 744.69 764.67 C 739.50 770.58 734.42 776.63 730.37 783.40 C 725.69 790.70 720.99 799.18 712.27 802.17 C 702.56 805.49 692.28 807.04 682.05 807.59 C 668.87 807.88 655.81 809.93 642.67 810.74 C 645.95 809.78 649.28 808.95 652.69 808.58 C 668.77 806.78 685.09 807.09 701.02 803.99 C 708.66 802.13 717.15 799.73 721.91 792.95 C 725.17 788.22 728.46 783.51 731.70 778.77 C 737.76 769.36 746.00 761.69 753.36 753.35 Z" />
</g>
<g id="#834015ff">
<path fill="#834015" opacity="1.00" d=" M 612.06 385.09 C 615.08 383.31 618.35 381.43 621.99 381.62 C 630.03 382.03 637.00 386.86 644.93 387.80 C 653.65 388.97 662.48 388.48 671.17 387.35 C 685.05 385.97 699.16 386.23 712.87 388.93 C 722.92 391.70 730.54 399.13 737.72 406.28 C 741.51 410.14 745.37 413.94 749.11 417.87 C 756.50 425.45 767.05 428.95 774.33 436.66 C 780.94 443.81 787.40 451.13 792.93 459.16 C 801.92 475.10 805.48 493.84 804.28 512.03 C 803.50 522.20 797.12 530.71 794.68 540.41 C 792.77 550.62 798.28 560.04 799.90 569.87 C 803.41 594.50 799.61 619.30 799.34 644.00 C 799.48 652.03 799.15 660.07 798.18 668.05 C 797.43 674.37 795.69 680.53 794.82 686.84 C 792.02 700.68 789.92 715.47 780.91 726.90 C 772.65 736.65 762.59 744.57 753.36 753.35 C 746.00 761.69 737.76 769.36 731.70 778.77 C 728.46 783.51 725.17 788.22 721.91 792.95 C 717.15 799.73 708.66 802.13 701.02 803.99 C 685.09 807.09 668.77 806.78 652.69 808.58 C 649.28 808.95 645.95 809.78 642.67 810.74 C 633.98 813.12 624.86 812.18 615.97 812.34 C 594.70 812.66 577.63 830.64 556.01 828.37 C 540.08 825.96 526.30 815.69 510.08 814.55 C 497.95 812.60 485.83 810.56 473.75 808.32 C 465.43 806.70 457.16 804.82 448.77 803.61 C 437.82 802.46 426.64 802.14 416.02 799.00 C 411.85 797.15 407.58 795.51 403.53 793.41 C 393.68 786.91 387.93 776.31 380.61 767.39 C 373.01 757.39 363.14 749.51 353.84 741.17 C 346.82 735.30 340.96 727.92 337.69 719.31 C 333.60 708.36 331.39 696.68 331.08 685.00 C 330.03 673.73 331.87 662.05 327.86 651.21 C 323.55 636.49 313.92 624.25 304.43 612.52 C 299.80 607.35 296.00 601.52 292.24 595.71 C 287.98 588.98 285.48 581.35 281.46 574.49 C 277.14 566.96 272.02 559.94 267.42 552.59 C 265.07 548.26 262.94 543.39 263.32 538.36 C 264.54 533.31 267.93 529.11 271.21 525.20 C 277.02 518.90 282.81 512.41 286.74 504.72 C 294.07 491.41 297.34 475.50 308.70 464.69 C 322.24 450.50 342.31 447.07 359.64 439.60 C 365.57 437.36 369.68 432.36 373.74 427.73 C 377.95 422.94 381.70 417.74 386.07 413.07 C 390.25 408.41 396.69 407.20 402.40 405.42 C 416.92 401.21 433.02 399.92 445.29 390.23 C 450.43 385.82 457.01 382.40 463.99 383.41 C 472.32 384.64 480.58 386.47 488.98 387.32 C 505.98 387.78 522.99 387.13 539.99 387.47 C 548.79 388.45 556.92 392.31 565.40 394.59 C 572.91 396.59 580.79 400.11 588.63 397.61 C 597.05 394.71 604.51 389.71 612.06 385.09 M 619.52 386.70 C 616.08 388.07 612.73 389.73 609.59 391.69 C 609.51 392.17 609.37 393.14 609.30 393.63 C 613.04 396.49 617.80 392.78 621.95 392.81 C 625.98 393.18 629.85 394.57 633.92 394.77 C 632.87 391.80 629.98 390.19 627.50 388.55 C 625.14 387.16 622.30 385.52 619.52 386.70 M 674.44 392.63 C 668.96 393.70 663.15 393.00 657.86 395.00 C 655.95 395.66 656.00 397.87 656.51 399.47 C 659.77 400.07 662.92 398.71 666.06 398.05 C 677.51 395.32 689.34 395.71 701.02 395.81 C 706.71 395.94 712.21 397.75 717.91 397.83 C 717.48 396.81 716.99 395.68 715.87 395.27 C 711.13 393.04 705.85 392.30 700.71 391.62 C 691.96 391.07 683.09 390.93 674.44 392.63 M 383.94 423.95 C 379.36 428.40 375.24 433.26 371.09 438.10 C 367.14 443.05 360.55 443.97 354.95 446.04 C 346.09 449.19 336.56 451.23 328.89 456.95 C 322.80 461.38 316.33 465.54 311.63 471.55 C 302.92 480.69 296.22 491.60 291.30 503.19 C 287.50 511.89 281.64 519.43 275.99 526.97 C 274.63 528.65 274.29 530.81 274.17 532.91 C 275.14 532.38 276.13 531.81 276.85 530.95 C 287.06 518.22 294.89 503.80 304.84 490.88 C 310.42 482.39 316.80 474.02 325.35 468.34 C 330.55 465.71 336.06 463.72 341.35 461.25 C 351.04 458.49 360.85 456.12 370.55 453.37 C 374.84 452.30 377.91 448.82 380.05 445.14 C 383.92 438.34 387.41 431.31 391.68 424.74 C 392.81 423.21 393.38 420.63 391.52 419.41 C 388.11 418.56 386.10 421.98 383.94 423.95 Z" />
</g>
</svg>
